<svg xmlns="http://www.w3.org/2000/svg" viewBox="0 0 73.12 106.78"><defs><style>.cls-1{fill:#e2e2e2;}</style></defs><title>Arrow Up</title><g id="Layer_2" data-name="Layer 2"><g id="Layer_4" data-name="Layer 4"><path class="cls-1" d="M0,3.27V13A8.26,8.26,0,0,0,3.32,19.6L45.09,50.85a3.18,3.18,0,0,1,0,5.09L3.32,87.18A8.27,8.27,0,0,0,0,93.8v9.71a3.27,3.27,0,0,0,5.22,2.62L71.55,56.52a3.9,3.9,0,0,0,0-6.25L5.23.66A3.26,3.26,0,0,0,0,3.27Z"/><path class="cls-1" d="M5.22,39l15,11.24a3.9,3.9,0,0,1,0,6.25l-15,11.23A3.27,3.27,0,0,1,0,65.13V41.65A3.27,3.27,0,0,1,5.22,39Z"/></g></g></svg>