<svg xmlns="http://www.w3.org/2000/svg" viewBox="0 0 96.82 96.82"><defs><style>.cls-1{fill:none;stroke:#efffcd;stroke-miterlimit:10;stroke-width:2px;}.cls-2{fill:#efffcd;}</style></defs><title>Github</title><g id="Layer_2" data-name="Layer 2"><g id="Logos_usados" data-name="Logos usados"><circle class="cls-1" cx="48.41" cy="48.41" r="47.41" transform="translate(-0.11 0.11) rotate(-0.13)"/><path class="cls-2" d="M56.41,66.39c1.77-.35,3.43-.6,5.05-1,4.87-1.22,9-3.61,11.22-8.31a22.26,22.26,0,0,0,1.53-15.5,13.68,13.68,0,0,0-3-5.49A1.26,1.26,0,0,1,71,34.7a14.25,14.25,0,0,0-.48-9.4,1.31,1.31,0,0,0-1-.64A11.8,11.8,0,0,0,64,26.09c-1.51.73-2.93,1.64-4.42,2.42a1.75,1.75,0,0,1-1.14.18,40.14,40.14,0,0,0-19.21,0,1.91,1.91,0,0,1-1.31-.27,24,24,0,0,0-8.48-3.68l-.29-.05c-1.63-.23-1.8-.14-2.27,1.41A14.86,14.86,0,0,0,26.77,35a1,1,0,0,1-.16.85C23,40,22.24,45,23,50.3a25.46,25.46,0,0,0,1.4,5.51c2.07,5.35,6.31,8.18,11.66,9.57,1.65.42,3.35.68,5.13,1a9.79,9.79,0,0,0-2.41,5c0,.21-.35.45-.58.54-4.36,1.67-8.59,1-11.27-3.48a8.25,8.25,0,0,0-5.49-4.15,5.11,5.11,0,0,0-1.91,0c-.86.17-1,.66-.41,1.3a4.35,4.35,0,0,0,.95.82,11.15,11.15,0,0,1,4.57,5.63c1.51,3.69,4.42,5.38,8.2,5.67a49.49,49.49,0,0,0,5.79-.18c0,2.49.07,5.11,0,7.72,0,1.33-1.46,1.94-3,1.43a36.43,36.43,0,0,1-9.7-4.8C13.62,73.27,7.41,61.37,8.08,46.32a40.28,40.28,0,0,1,33-37.65A40.51,40.51,0,0,1,62.19,86.72c-2,.67-3.2-.17-3.19-2.33C59,81,59,77.6,59,74.2,59,71.35,58.53,68.67,56.41,66.39Z"/></g></g></svg>