<svg xmlns="http://www.w3.org/2000/svg" viewBox="0 0 96.82 96.82"><defs><style>.cls-1{fill:none;stroke:#efffcd;stroke-miterlimit:10;stroke-width:2px;}.cls-2{fill:#efffcd;}.cls-3{fill:#2e2633;}</style></defs><title>Linkdin</title><g id="Layer_2" data-name="Layer 2"><g id="Logos_usados" data-name="Logos usados"><circle class="cls-1" cx="48.41" cy="48.41" r="47.41" transform="translate(-10.37 13.32) rotate(-14.16)"/><circle class="cls-2" cx="48.41" cy="48.41" r="40.68" transform="matrix(0.16, -0.99, 0.99, 0.16, -7.21, 88.32)"/><rect class="cls-3" x="29.14" y="40.09" width="8.88" height="28.68"/><path class="cls-3" d="M33.54,36.34A5.3,5.3,0,1,0,28.29,31,5.28,5.28,0,0,0,33.54,36.34Z"/><path class="cls-3" d="M52.21,53.72c0-4,1.86-6.44,5.41-6.44,3.26,0,4.83,2.31,4.83,6.44v15h8.84V50.61c0-7.68-4.35-11.39-10.44-11.39A10,10,0,0,0,52.21,44V40.09H43.7V68.77h8.51Z"/></g></g></svg>