<?xml version="1.0" encoding="utf-8"?>
<!-- Generator: Adobe Illustrator 22.0.0, SVG Export Plug-In . SVG Version: 6.00 Build 0)  -->
<svg version="1.1" id="Layer_1" xmlns="http://www.w3.org/2000/svg" xmlns:xlink="http://www.w3.org/1999/xlink" x="0px" y="0px"
	 viewBox="0 0 612 792" style="enable-background:new 0 0 612 792;" xml:space="preserve">
<style type="text/css">
	.st0{fill:#CCCCCC;}
</style>
<path class="st0" d="M307.1,0C87.2,0-91,178.2-91,398.1S87.2,796.1,307.1,796.1s398.1-178.2,398.1-398.1S526.9,0,307.1,0z
	 M642.4,509.2c0,44.8-19.4,78.8-58.3,100.7c-72.4,40.7-145.2,80.8-217.9,121.3c-38.2,21.3-76,20.8-114-0.4
	C180,690.5,107.6,650.6,35.5,610.1c-39-21.9-58.6-55.7-58.6-100.5c-0.1-78.2-0.1-156.4,0-234.6c0.1-44.3,19.3-78,57.7-99.7
	c72.8-41,146-81.3,219.1-121.9c37.1-20.7,74.4-20.8,111.6-0.2c73.1,40.6,146.3,80.9,219.1,121.9c39,21.9,58.1,56,58.1,100.8
	c0,38.6,0,77.3,0,115.9V509.2z"/>
<path id="Int" class="st0" d="M587.9,274.6c0-23.6-10.1-40.9-30.6-52.3C483.8,181.5,410.5,140.7,337,99.9
	c-18.1-10-36.5-10.2-54.6-0.1C209,140.5,135.6,181.4,62.2,222.2c-21,11.7-31.1,29.4-30.9,53.5c0.3,38.6,0.1,77.3,0.1,115.9
	c0,39.1,0.2,78.2-0.1,117.3c-0.2,24.1,9.6,42,30.7,53.7c73.4,40.8,146.8,81.7,220.2,122.4c18.1,10,36.5,10.2,54.6,0.1
	c73.8-41,147.6-82,221.4-123.1c20-11.2,29.7-28.5,29.7-51.5C587.8,431.9,587.8,353.3,587.9,274.6z M316.1,457.8
	c-0.8,28.2,8,42.1,43.7,33.1c11.5-2.9,15.9-2,13.7,10.4c-0.1,0.5,0,0.9,0,1.4c0,27.2-4.4,32.1-32.1,34.2c-8.6,0.6-17.3,0.7-25.9-0.1
	c-26.2-2.6-43.1-19-47.2-44.9c-3.6-22.6-0.8-45.4-1.8-64.3c0-21-0.4-38.3,0.2-55.5c0.3-8.6-1.8-13.3-11.2-11.5
	c-14.3,2.8-18.7-3.8-16.5-17c0.4-2.2,0.1-4.6,0.1-6.8c0-17.8,0-18.2,17.6-18.2c7.8,0,10.3-2.2,10-10c-0.6-13.1,0.4-26.4-0.4-39.5
	c-0.5-8.8,2.8-10.9,10.9-10.4c10,0.6,20,0.6,30,0c7.3-0.4,9.4,2.4,9.1,9.3c-0.5,11.8,0.6,23.7-0.3,35.4
	c-0.9,11.4,1.7,16.7,14.6,15.3c11.7-1.3,23.6,0,35.4-0.4c6.3-0.2,8.5,1.6,8.8,8.3c1.8,34,2,34-32.3,34c-26.3,0-26.3,0-26.3,26.4
	C316.3,410.6,316.9,434.3,316.1,457.8z"/>
</svg>
