<svg xmlns="http://www.w3.org/2000/svg" viewBox="0 0 96.82 96.82"><defs><style>.cls-1{fill:none;stroke:#efffcd;stroke-miterlimit:10;stroke-width:2px;}.cls-2{fill:#efffcd;}.cls-3{fill:#2e2633;}</style></defs><title>Twitter</title><g id="Layer_2" data-name="Layer 2"><g id="Logos_usados" data-name="Logos usados"><circle class="cls-1" cx="48.41" cy="48.41" r="47.41"/><circle class="cls-2" cx="48.41" cy="48.41" r="40.68"/><path class="cls-3" d="M28.59,64.77A26.55,26.55,0,0,0,43,69c17.41,0,27.24-14.7,26.65-27.89a19.31,19.31,0,0,0,4.68-4.86,18.73,18.73,0,0,1-5.38,1.48A9.43,9.43,0,0,0,73,32.52a19.1,19.1,0,0,1-6,2.28,9.38,9.38,0,0,0-16,8.55,26.65,26.65,0,0,1-19.33-9.8,9.39,9.39,0,0,0,2.91,12.52,9.37,9.37,0,0,1-4.25-1.17A9.38,9.38,0,0,0,38,54.21a9.38,9.38,0,0,1-4.23.16,9.38,9.38,0,0,0,8.75,6.52A18.82,18.82,0,0,1,28.59,64.77Z"/></g></g></svg>